<mxfile host="app.diagrams.net" modified="2022-06-25T06:34:29.509Z" agent="5.0 (Macintosh; Intel Mac OS X 10_15_7) AppleWebKit/537.36 (KHTML, like Gecko) Chrome/102.0.0.0 Safari/537.36" etag="jTHKZX3aWC4CWmPUFlLn" version="19.0.0" type="github" pages="3">
  <diagram id="GyDPhunH_FVkdkP3zkRw" name="ルール提案システム">
    <mxGraphModel dx="946" dy="687" grid="1" gridSize="10" guides="1" tooltips="1" connect="1" arrows="1" fold="1" page="1" pageScale="1" pageWidth="827" pageHeight="1169" math="0" shadow="0">
      <root>
        <mxCell id="0" />
        <mxCell id="1" parent="0" />
        <mxCell id="RcKn2LfFImlr11WAAhdf-1" value="" style="rounded=0;whiteSpace=wrap;html=1;" parent="1" vertex="1">
          <mxGeometry x="290" y="60" width="350" height="550" as="geometry" />
        </mxCell>
        <mxCell id="FgcNGu-Bk2l5FQBlvC5e-8" style="edgeStyle=orthogonalEdgeStyle;rounded=0;orthogonalLoop=1;jettySize=auto;html=1;entryX=0;entryY=0.5;entryDx=0;entryDy=0;fontFamily=Helvetica;fontSize=12;fontColor=default;" edge="1" parent="1" source="Et_TOoHxw4boI_8ivv7L-1" target="Sl5OckGR4h0zzyXm8clg-3">
          <mxGeometry relative="1" as="geometry" />
        </mxCell>
        <mxCell id="FgcNGu-Bk2l5FQBlvC5e-9" style="edgeStyle=orthogonalEdgeStyle;rounded=0;orthogonalLoop=1;jettySize=auto;html=1;entryX=0;entryY=0.5;entryDx=0;entryDy=0;fontFamily=Helvetica;fontSize=12;fontColor=default;" edge="1" parent="1" source="Et_TOoHxw4boI_8ivv7L-1" target="FgcNGu-Bk2l5FQBlvC5e-6">
          <mxGeometry relative="1" as="geometry" />
        </mxCell>
        <mxCell id="Et_TOoHxw4boI_8ivv7L-1" value="提案者" style="shape=umlActor;verticalLabelPosition=bottom;verticalAlign=top;html=1;outlineConnect=0;" parent="1" vertex="1">
          <mxGeometry x="70" y="140" width="30" height="60" as="geometry" />
        </mxCell>
        <mxCell id="FgcNGu-Bk2l5FQBlvC5e-2" style="edgeStyle=orthogonalEdgeStyle;rounded=0;orthogonalLoop=1;jettySize=auto;html=1;fontFamily=Helvetica;fontSize=12;fontColor=default;entryX=1;entryY=0.5;entryDx=0;entryDy=0;" edge="1" parent="1" target="Sl5OckGR4h0zzyXm8clg-3">
          <mxGeometry relative="1" as="geometry">
            <mxPoint x="756" y="420" as="sourcePoint" />
            <mxPoint x="450" y="350" as="targetPoint" />
            <Array as="points">
              <mxPoint x="604" y="420" />
              <mxPoint x="604" y="350" />
            </Array>
          </mxGeometry>
        </mxCell>
        <mxCell id="FgcNGu-Bk2l5FQBlvC5e-4" style="edgeStyle=orthogonalEdgeStyle;rounded=0;orthogonalLoop=1;jettySize=auto;html=1;entryX=1;entryY=0.5;entryDx=0;entryDy=0;fontFamily=Helvetica;fontSize=12;fontColor=default;" edge="1" parent="1" source="Et_TOoHxw4boI_8ivv7L-5" target="Sl5OckGR4h0zzyXm8clg-1">
          <mxGeometry relative="1" as="geometry" />
        </mxCell>
        <mxCell id="FgcNGu-Bk2l5FQBlvC5e-5" style="edgeStyle=orthogonalEdgeStyle;rounded=0;orthogonalLoop=1;jettySize=auto;html=1;entryX=1;entryY=0.5;entryDx=0;entryDy=0;fontFamily=Helvetica;fontSize=12;fontColor=default;" edge="1" parent="1" source="Et_TOoHxw4boI_8ivv7L-5" target="Sl5OckGR4h0zzyXm8clg-2">
          <mxGeometry relative="1" as="geometry" />
        </mxCell>
        <mxCell id="FgcNGu-Bk2l5FQBlvC5e-11" style="edgeStyle=orthogonalEdgeStyle;rounded=0;orthogonalLoop=1;jettySize=auto;html=1;entryX=1;entryY=0.5;entryDx=0;entryDy=0;fontFamily=Helvetica;fontSize=12;fontColor=default;" edge="1" parent="1" source="Et_TOoHxw4boI_8ivv7L-5" target="FgcNGu-Bk2l5FQBlvC5e-6">
          <mxGeometry relative="1" as="geometry" />
        </mxCell>
        <mxCell id="Et_TOoHxw4boI_8ivv7L-5" value="承認者" style="shape=umlActor;verticalLabelPosition=bottom;verticalAlign=top;html=1;outlineConnect=0;" parent="1" vertex="1">
          <mxGeometry x="752" y="390" width="30" height="60" as="geometry" />
        </mxCell>
        <mxCell id="5YXgGP7oTztQ5MLQiYUO-2" value="&lt;span style=&quot;&quot;&gt;1, 提案者がルール提案を画面に入力する&lt;/span&gt;" style="rounded=0;whiteSpace=wrap;html=1;" parent="1" vertex="1">
          <mxGeometry x="30" y="70" width="120" height="60" as="geometry" />
        </mxCell>
        <mxCell id="5YXgGP7oTztQ5MLQiYUO-3" value="2. 提案者の意見を吟味し、ルールを受け入れるか、拒否するかを決定する。" style="rounded=0;whiteSpace=wrap;html=1;" parent="1" vertex="1">
          <mxGeometry x="707" y="320" width="120" height="60" as="geometry" />
        </mxCell>
        <mxCell id="5YXgGP7oTztQ5MLQiYUO-4" value="3. 以下の通知を提案者、承認者に送信する。&lt;br&gt;・ルールが拒否された&lt;br&gt;・ルールが承認された&lt;br&gt;・ルールへのコメント" style="rounded=0;whiteSpace=wrap;html=1;" parent="1" vertex="1">
          <mxGeometry x="140" y="460" width="166" height="84.5" as="geometry" />
        </mxCell>
        <mxCell id="RcKn2LfFImlr11WAAhdf-2" value="ルールを提案する。" style="rounded=0;whiteSpace=wrap;html=1;" parent="1" vertex="1">
          <mxGeometry x="335" y="140" width="120" height="60" as="geometry" />
        </mxCell>
        <mxCell id="Sl5OckGR4h0zzyXm8clg-1" value="提案されたルールを承認する。" style="rounded=0;whiteSpace=wrap;html=1;" vertex="1" parent="1">
          <mxGeometry x="335" y="440" width="120" height="60" as="geometry" />
        </mxCell>
        <mxCell id="Sl5OckGR4h0zzyXm8clg-2" value="提案されたルールを拒否する。" style="rounded=0;whiteSpace=wrap;html=1;" vertex="1" parent="1">
          <mxGeometry x="335" y="520" width="120" height="60" as="geometry" />
        </mxCell>
        <mxCell id="Sl5OckGR4h0zzyXm8clg-3" value="提案されたルールにコメントする" style="rounded=0;whiteSpace=wrap;html=1;" vertex="1" parent="1">
          <mxGeometry x="335" y="320" width="120" height="60" as="geometry" />
        </mxCell>
        <mxCell id="FgcNGu-Bk2l5FQBlvC5e-1" style="edgeStyle=orthogonalEdgeStyle;rounded=0;orthogonalLoop=1;jettySize=auto;html=1;entryX=0;entryY=0.5;entryDx=0;entryDy=0;fontFamily=Helvetica;fontSize=12;fontColor=default;" edge="1" parent="1" source="Et_TOoHxw4boI_8ivv7L-1" target="RcKn2LfFImlr11WAAhdf-2">
          <mxGeometry relative="1" as="geometry" />
        </mxCell>
        <mxCell id="FgcNGu-Bk2l5FQBlvC5e-6" value="ルールの重要度を設定する。" style="rounded=0;whiteSpace=wrap;html=1;" vertex="1" parent="1">
          <mxGeometry x="335" y="250" width="120" height="60" as="geometry" />
        </mxCell>
        <mxCell id="FgcNGu-Bk2l5FQBlvC5e-13" value="提案されたルールはコメントを通じて話し合うか、直接会話するかは利用者が決める。" style="shape=note;whiteSpace=wrap;html=1;backgroundOutline=1;darkOpacity=0.05;rounded=0;fontFamily=Helvetica;fontSize=12;fontColor=default;strokeColor=default;fillColor=default;size=18;" vertex="1" parent="1">
          <mxGeometry x="420" y="570" width="245" height="60" as="geometry" />
        </mxCell>
      </root>
    </mxGraphModel>
  </diagram>
  <diagram id="I7pQWsgpf0SX6WXXmAYH" name="ルール通知システム">
    <mxGraphModel dx="946" dy="687" grid="1" gridSize="10" guides="1" tooltips="1" connect="1" arrows="1" fold="1" page="1" pageScale="1" pageWidth="827" pageHeight="1169" math="0" shadow="0">
      <root>
        <mxCell id="0" />
        <mxCell id="1" parent="0" />
        <mxCell id="4kQ_azIvT6K3Oszr9wH6-1" value="" style="rounded=0;whiteSpace=wrap;html=1;" vertex="1" parent="1">
          <mxGeometry x="290" y="90" width="350" height="530" as="geometry" />
        </mxCell>
        <mxCell id="yFMLHKMhRiO-TCmCAtP5-13" style="edgeStyle=orthogonalEdgeStyle;rounded=0;orthogonalLoop=1;jettySize=auto;html=1;entryX=0;entryY=0.5;entryDx=0;entryDy=0;fontFamily=Helvetica;fontSize=12;fontColor=default;" edge="1" parent="1" source="4kQ_azIvT6K3Oszr9wH6-4" target="yFMLHKMhRiO-TCmCAtP5-9">
          <mxGeometry relative="1" as="geometry" />
        </mxCell>
        <mxCell id="4kQ_azIvT6K3Oszr9wH6-4" value="メンバー" style="shape=umlActor;verticalLabelPosition=bottom;verticalAlign=top;html=1;outlineConnect=0;" vertex="1" parent="1">
          <mxGeometry x="70" y="170" width="30" height="60" as="geometry" />
        </mxCell>
        <mxCell id="4kQ_azIvT6K3Oszr9wH6-13" value="ルールに違反・奨励している件を通知する。" style="rounded=0;whiteSpace=wrap;html=1;" vertex="1" parent="1">
          <mxGeometry x="335" y="170" width="120" height="60" as="geometry" />
        </mxCell>
        <mxCell id="4kQ_azIvT6K3Oszr9wH6-17" style="edgeStyle=orthogonalEdgeStyle;rounded=0;orthogonalLoop=1;jettySize=auto;html=1;entryX=0;entryY=0.5;entryDx=0;entryDy=0;fontFamily=Helvetica;fontSize=12;fontColor=default;" edge="1" parent="1" source="4kQ_azIvT6K3Oszr9wH6-4" target="4kQ_azIvT6K3Oszr9wH6-13">
          <mxGeometry relative="1" as="geometry" />
        </mxCell>
        <mxCell id="r-bLLrmalTpKYi79fkwZ-1" value="違反や、奨励に関してコメントする。" style="rounded=0;whiteSpace=wrap;html=1;" vertex="1" parent="1">
          <mxGeometry x="510" y="140" width="120" height="60" as="geometry" />
        </mxCell>
        <mxCell id="s5eACRXPAOJjPTtvMQ9v-1" value="コメントは無くした方がいいかもしれない。奨励のみコメントを残すなどは検討" style="shape=note;whiteSpace=wrap;html=1;backgroundOutline=1;darkOpacity=0.05;rounded=0;fontFamily=Helvetica;fontSize=12;fontColor=default;strokeColor=default;fillColor=default;size=18;" vertex="1" parent="1">
          <mxGeometry x="570" y="80" width="245" height="60" as="geometry" />
        </mxCell>
        <mxCell id="yFMLHKMhRiO-TCmCAtP5-1" value="ルール廃止を提案する。" style="rounded=0;whiteSpace=wrap;html=1;" vertex="1" parent="1">
          <mxGeometry x="335" y="270" width="120" height="60" as="geometry" />
        </mxCell>
        <mxCell id="yFMLHKMhRiO-TCmCAtP5-2" style="edgeStyle=orthogonalEdgeStyle;rounded=0;orthogonalLoop=1;jettySize=auto;html=1;entryX=0;entryY=0.5;entryDx=0;entryDy=0;fontFamily=Helvetica;fontSize=12;fontColor=default;" edge="1" parent="1" target="yFMLHKMhRiO-TCmCAtP5-1">
          <mxGeometry relative="1" as="geometry">
            <mxPoint x="100" y="200" as="sourcePoint" />
            <mxPoint x="345" y="210" as="targetPoint" />
          </mxGeometry>
        </mxCell>
        <mxCell id="yFMLHKMhRiO-TCmCAtP5-5" value="全メンバーが賛成でルールを廃止する。" style="rounded=0;whiteSpace=wrap;html=1;" vertex="1" parent="1">
          <mxGeometry x="510" y="360" width="120" height="60" as="geometry" />
        </mxCell>
        <mxCell id="yFMLHKMhRiO-TCmCAtP5-6" style="edgeStyle=orthogonalEdgeStyle;rounded=0;orthogonalLoop=1;jettySize=auto;html=1;fontFamily=Helvetica;fontSize=12;fontColor=default;entryX=0;entryY=0.5;entryDx=0;entryDy=0;" edge="1" parent="1" target="r-bLLrmalTpKYi79fkwZ-1">
          <mxGeometry relative="1" as="geometry">
            <mxPoint x="455" y="200" as="sourcePoint" />
            <mxPoint x="500" y="160" as="targetPoint" />
          </mxGeometry>
        </mxCell>
        <mxCell id="yFMLHKMhRiO-TCmCAtP5-7" style="edgeStyle=orthogonalEdgeStyle;rounded=0;orthogonalLoop=1;jettySize=auto;html=1;fontFamily=Helvetica;fontSize=12;fontColor=default;entryX=0;entryY=0.5;entryDx=0;entryDy=0;exitX=1;exitY=0.5;exitDx=0;exitDy=0;" edge="1" parent="1" source="yFMLHKMhRiO-TCmCAtP5-1" target="yFMLHKMhRiO-TCmCAtP5-5">
          <mxGeometry relative="1" as="geometry">
            <mxPoint x="465" y="210" as="sourcePoint" />
            <mxPoint x="510" y="170" as="targetPoint" />
          </mxGeometry>
        </mxCell>
        <mxCell id="yFMLHKMhRiO-TCmCAtP5-8" style="edgeStyle=orthogonalEdgeStyle;rounded=0;orthogonalLoop=1;jettySize=auto;html=1;entryX=0;entryY=0.5;entryDx=0;entryDy=0;fontFamily=Helvetica;fontSize=12;fontColor=default;" edge="1" parent="1" target="yFMLHKMhRiO-TCmCAtP5-10">
          <mxGeometry relative="1" as="geometry">
            <mxPoint x="100" y="200" as="sourcePoint" />
            <mxPoint x="345" y="310" as="targetPoint" />
          </mxGeometry>
        </mxCell>
        <mxCell id="yFMLHKMhRiO-TCmCAtP5-11" style="edgeStyle=orthogonalEdgeStyle;rounded=0;orthogonalLoop=1;jettySize=auto;html=1;fontFamily=Helvetica;fontSize=12;fontColor=default;" edge="1" parent="1" source="yFMLHKMhRiO-TCmCAtP5-9" target="yFMLHKMhRiO-TCmCAtP5-5">
          <mxGeometry relative="1" as="geometry" />
        </mxCell>
        <mxCell id="yFMLHKMhRiO-TCmCAtP5-9" value="ルール廃止に賛成する。" style="rounded=0;whiteSpace=wrap;html=1;" vertex="1" parent="1">
          <mxGeometry x="335" y="360" width="120" height="60" as="geometry" />
        </mxCell>
        <mxCell id="yFMLHKMhRiO-TCmCAtP5-12" style="edgeStyle=orthogonalEdgeStyle;rounded=0;orthogonalLoop=1;jettySize=auto;html=1;entryX=0;entryY=0.5;entryDx=0;entryDy=0;fontFamily=Helvetica;fontSize=12;fontColor=default;" edge="1" parent="1" source="yFMLHKMhRiO-TCmCAtP5-10" target="yFMLHKMhRiO-TCmCAtP5-5">
          <mxGeometry relative="1" as="geometry" />
        </mxCell>
        <mxCell id="yFMLHKMhRiO-TCmCAtP5-10" value="ルール廃止に反対する" style="rounded=0;whiteSpace=wrap;html=1;" vertex="1" parent="1">
          <mxGeometry x="335" y="440" width="120" height="60" as="geometry" />
        </mxCell>
      </root>
    </mxGraphModel>
  </diagram>
  <diagram id="7tyftblFB10bc_5N7Jpf" name="ルールグループシステム">
    <mxGraphModel dx="946" dy="687" grid="1" gridSize="10" guides="1" tooltips="1" connect="1" arrows="1" fold="1" page="1" pageScale="1" pageWidth="827" pageHeight="1169" math="0" shadow="0">
      <root>
        <mxCell id="0" />
        <mxCell id="1" parent="0" />
        <mxCell id="GBBLdUdh31j0iQhYC3XH-1" value="" style="rounded=0;whiteSpace=wrap;html=1;" vertex="1" parent="1">
          <mxGeometry x="270" y="190" width="350" height="530" as="geometry" />
        </mxCell>
        <mxCell id="GBBLdUdh31j0iQhYC3XH-3" value="グループ管理者" style="shape=umlActor;verticalLabelPosition=bottom;verticalAlign=top;html=1;outlineConnect=0;" vertex="1" parent="1">
          <mxGeometry x="50" y="270" width="30" height="60" as="geometry" />
        </mxCell>
        <mxCell id="GBBLdUdh31j0iQhYC3XH-25" style="edgeStyle=orthogonalEdgeStyle;rounded=0;orthogonalLoop=1;jettySize=auto;html=1;fontFamily=Helvetica;fontSize=12;fontColor=default;" edge="1" parent="1" source="GBBLdUdh31j0iQhYC3XH-4" target="GBBLdUdh31j0iQhYC3XH-24">
          <mxGeometry relative="1" as="geometry" />
        </mxCell>
        <mxCell id="GBBLdUdh31j0iQhYC3XH-4" value="グループを作成する" style="rounded=0;whiteSpace=wrap;html=1;" vertex="1" parent="1">
          <mxGeometry x="315" y="270" width="120" height="60" as="geometry" />
        </mxCell>
        <mxCell id="GBBLdUdh31j0iQhYC3XH-5" style="edgeStyle=orthogonalEdgeStyle;rounded=0;orthogonalLoop=1;jettySize=auto;html=1;entryX=0;entryY=0.5;entryDx=0;entryDy=0;fontFamily=Helvetica;fontSize=12;fontColor=default;" edge="1" parent="1" source="GBBLdUdh31j0iQhYC3XH-3" target="GBBLdUdh31j0iQhYC3XH-4">
          <mxGeometry relative="1" as="geometry" />
        </mxCell>
        <mxCell id="GBBLdUdh31j0iQhYC3XH-7" value="招待制にはしない" style="shape=note;whiteSpace=wrap;html=1;backgroundOutline=1;darkOpacity=0.05;rounded=0;fontFamily=Helvetica;fontSize=12;fontColor=default;strokeColor=default;fillColor=default;size=18;" vertex="1" parent="1">
          <mxGeometry x="570" y="150" width="245" height="60" as="geometry" />
        </mxCell>
        <mxCell id="GBBLdUdh31j0iQhYC3XH-8" value="グループに参加する。" style="rounded=0;whiteSpace=wrap;html=1;" vertex="1" parent="1">
          <mxGeometry x="315" y="480" width="120" height="60" as="geometry" />
        </mxCell>
        <mxCell id="GBBLdUdh31j0iQhYC3XH-18" value="グループ管理者" style="shape=umlActor;verticalLabelPosition=bottom;verticalAlign=top;html=1;outlineConnect=0;" vertex="1" parent="1">
          <mxGeometry x="50" y="270" width="30" height="60" as="geometry" />
        </mxCell>
        <mxCell id="GBBLdUdh31j0iQhYC3XH-19" value="メンバー" style="shape=umlActor;verticalLabelPosition=bottom;verticalAlign=top;html=1;outlineConnect=0;" vertex="1" parent="1">
          <mxGeometry x="700" y="480" width="30" height="60" as="geometry" />
        </mxCell>
        <mxCell id="GBBLdUdh31j0iQhYC3XH-20" style="edgeStyle=orthogonalEdgeStyle;rounded=0;orthogonalLoop=1;jettySize=auto;html=1;entryX=1;entryY=0.5;entryDx=0;entryDy=0;fontFamily=Helvetica;fontSize=12;fontColor=default;exitX=0.5;exitY=0.5;exitDx=0;exitDy=0;exitPerimeter=0;" edge="1" parent="1" source="GBBLdUdh31j0iQhYC3XH-19" target="GBBLdUdh31j0iQhYC3XH-8">
          <mxGeometry relative="1" as="geometry">
            <mxPoint x="90" y="420" as="sourcePoint" />
            <mxPoint x="325" y="420" as="targetPoint" />
          </mxGeometry>
        </mxCell>
        <mxCell id="GBBLdUdh31j0iQhYC3XH-21" value="グループのパスワードが作成される" style="rounded=0;whiteSpace=wrap;html=1;" vertex="1" parent="1">
          <mxGeometry x="490" y="310" width="120" height="60" as="geometry" />
        </mxCell>
        <mxCell id="GBBLdUdh31j0iQhYC3XH-23" value="グループ名とパスワードで参加する。" style="shape=note;whiteSpace=wrap;html=1;backgroundOutline=1;darkOpacity=0.05;rounded=0;fontFamily=Helvetica;fontSize=12;fontColor=default;strokeColor=default;fillColor=default;size=18;" vertex="1" parent="1">
          <mxGeometry x="190" y="425" width="160" height="60" as="geometry" />
        </mxCell>
        <mxCell id="GBBLdUdh31j0iQhYC3XH-26" style="edgeStyle=orthogonalEdgeStyle;rounded=0;orthogonalLoop=1;jettySize=auto;html=1;fontFamily=Helvetica;fontSize=12;fontColor=default;" edge="1" parent="1" source="GBBLdUdh31j0iQhYC3XH-24" target="GBBLdUdh31j0iQhYC3XH-21">
          <mxGeometry relative="1" as="geometry" />
        </mxCell>
        <mxCell id="GBBLdUdh31j0iQhYC3XH-24" value="グループ名を入力する。" style="rounded=0;whiteSpace=wrap;html=1;" vertex="1" parent="1">
          <mxGeometry x="490" y="220" width="120" height="60" as="geometry" />
        </mxCell>
      </root>
    </mxGraphModel>
  </diagram>
</mxfile>
